<?xml version="1.0" encoding="UTF-8"?>
<svg width="91px" height="62px" viewBox="0 0 91 62" version="1.1" xmlns="http://www.w3.org/2000/svg" xmlns:xlink="http://www.w3.org/1999/xlink">
    <!-- Generator: Sketch 50.2 (55047) - http://www.bohemiancoding.com/sketch -->
    <title>icon/benefits/reliability</title>
    <desc>Created with Sketch.</desc>
    <defs></defs>
    <g id="icon/benefits/reliability" stroke="none" stroke-width="1" fill="none" fill-rule="evenodd">
        <path d="M80.8966399,46.9407547 C83.7308333,45.7792453 85.8651075,43.0932547 88.4308387,38.4682311 C81.5428667,34.4449764 74.0009976,36.8386792 69.0996456,45.4220047" id="Stroke-1" stroke="#6C7C90" stroke-width="2"></path>
        <path d="M59.2769987,55.8717689 C64.1342462,60.4948821 71.3443727,63.6317217 80.435652,54.1524292 C74.4259348,48.4308491 66.1266189,48.7288679 59.2769987,55.8717689 Z" id="Stroke-3" stroke="#6C7C90" stroke-width="2"></path>
        <path d="M83.6184627,31.7196321 C86.6214037,29.6411415 88.8784034,25.7802689 89.3309539,18.9831462 C81.0373908,18.4348679 74.8627611,23.9673208 74.2031112,33.8267783" id="Stroke-5" stroke="#6C7C90" stroke-width="2"></path>
        <path d="M81.6949313,15.4504764 C83.7237382,12.4129764 84.3948936,7.99045283 82.2932184,1.49516981 C74.3831726,4.03788208 70.6956531,11.4520566 73.7388635,20.8568443" id="Stroke-7" stroke="#6C7C90" stroke-width="2"></path>
        <path d="M9.55819014,46.9407547 C6.72399677,45.7792453 4.5897226,43.0932547 2.02399138,38.4682311 C8.91196337,34.4449764 16.4538325,36.8386792 21.3551845,45.4220047" id="Stroke-9" stroke="#6C7C90" stroke-width="2"></path>
        <path d="M31.1778314,55.8717689 C26.3205839,60.4948821 19.1104573,63.6317217 10.019178,54.1524292 C16.0288952,48.4308491 24.3282112,48.7288679 31.1778314,55.8717689 Z" id="Stroke-11" stroke="#6C7C90" stroke-width="2"></path>
        <path d="M6.83636736,31.7196321 C3.83342634,29.6411415 1.57642661,25.7802689 1.12195852,18.9831462 C9.41743927,18.4348679 15.5920689,23.9673208 16.2517188,33.8267783" id="Stroke-13" stroke="#6C7C90" stroke-width="2"></path>
        <path d="M8.75989873,15.4504764 C6.73109184,12.4129764 6.05993644,7.99045283 8.16161163,1.49516981 C16.0716574,4.03788208 19.7591769,11.4520566 16.7159666,20.8568443" id="Stroke-15" stroke="#6C7C90" stroke-width="2"></path>
        <path d="M45.227415,58.2887783 C45.227415,58.2887783 66.3208705,46.6851462 66.3208705,24.9909009 L66.3208705,16.7781887 C56.5948699,16.1458538 45.227415,5.31592453 45.227415,5.31592453 C45.227415,5.31592453 33.8599601,16.1458538 24.1339596,16.7781887 L24.1339596,24.9909009 C24.1339596,46.6851462 45.227415,58.2887783 45.227415,58.2887783 Z" id="Stroke-17" stroke="#002E67" stroke-width="2" stroke-linejoin="round"></path>
        <polygon id="Stroke-19" stroke="#002E67" stroke-width="2" stroke-linejoin="round" points="45.2429475 16.8290047 48.6620048 25.8230613 57.7130148 26.2949245 50.7751856 32.6182736 52.9497291 41.6123302 45.2429475 36.817283 37.5361659 41.6123302 39.7107094 32.6182736 32.7728802 26.2949245 41.8238901 25.8230613"></polygon>
    </g>
</svg>