<?xml version="1.0" encoding="UTF-8"?>
<svg width="68px" height="62px" viewBox="0 0 68 62" version="1.1" xmlns="http://www.w3.org/2000/svg" xmlns:xlink="http://www.w3.org/1999/xlink">
    <!-- Generator: Sketch 50.2 (55047) - http://www.bohemiancoding.com/sketch -->
    <title>icon/benefits/expert</title>
    <desc>Created with Sketch.</desc>
    <defs></defs>
    <g id="icon/benefits/expert" stroke="none" stroke-width="1" fill="none" fill-rule="evenodd">
        <polyline id="Stroke-1" stroke="#6C7C90" stroke-width="2" points="5.30434783 9.57142857 1 9.57142857 1 1 9.60869565 1 9.60869565 5.28571429"></polyline>
        <polyline id="Stroke-3" stroke="#6C7C90" stroke-width="2" points="62.6956522 9.57142857 67 9.57142857 67 1 58.3913043 1 58.3913043 5.28571429"></polyline>
        <path d="M13.9130435,2.42857143 L54.0869565,2.42857143" id="Stroke-5" stroke="#6C7C90" stroke-width="2"></path>
        <polyline id="Stroke-7" stroke="#6C7C90" stroke-width="2" points="5.30434783 41 1 41 1 49.5714286 9.60869565 49.5714286 9.60869565 45.2857143"></polyline>
        <polyline id="Stroke-9" stroke="#6C7C90" stroke-width="2" points="62.6956522 41 67 41 67 49.5714286 58.3913043 49.5714286 58.3913043 45.2857143"></polyline>
        <path d="M13.9130435,48.1428571 L25.3913043,48.1428571" id="Stroke-12" stroke="#6C7C90" stroke-width="2"></path>
        <path d="M42.6086957,48.1428571 L54.0869565,48.1428571" id="Stroke-13" stroke="#6C7C90" stroke-width="2"></path>
        <path d="M2.43478261,13.8571429 L2.43478261,36.7142857" id="Stroke-14" stroke="#6C7C90" stroke-width="2"></path>
        <path d="M65.5652174,13.8571429 L65.5652174,36.7142857" id="Stroke-16" stroke="#6C7C90" stroke-width="2"></path>
        <polyline id="Stroke-18" stroke="#002E67" stroke-width="2" stroke-linecap="round" stroke-linejoin="round" points="29.6956522 46.7142857 29.6956522 61 34 58.1428571 38.3043478 61 38.3043478 46.7142857"></polyline>
        <path d="M18.2173913,13.8571429 L49.7826087,13.8571429" id="Stroke-21" stroke="#002E67" stroke-width="2"></path>
        <path d="M23.9565217,19.5714286 L44.0434783,19.5714286" id="Stroke-22" stroke="#002E67" stroke-width="2"></path>
        <path d="M36.0171609,27.6101429 C36.6226391,28.2744286 37.5122043,28.6001429 38.3989,28.483 C39.995813,28.2715714 41.4305957,29.483 41.5023348,31.103 C41.5425087,32.003 42.015987,32.8272857 42.7721174,33.3115714 C44.1294217,34.1844286 44.4565522,36.0387143 43.4780304,37.3258571 C42.9342478,38.0415714 42.7706826,38.9787143 43.0404217,39.8387143 C43.5253783,41.3844286 42.5899,43.0158571 41.018813,43.3672857 C40.1450304,43.563 39.4219,44.1758571 39.078987,45.0072857 C38.4634652,46.5044286 36.7058565,47.1487143 35.276813,46.4015714 C34.4819435,45.9858571 33.5364217,45.9858571 32.742987,46.4015714 C31.3139435,47.1487143 29.5549,46.5044286 28.9365087,45.0072857 C28.5935957,44.1758571 27.8675957,43.563 26.993813,43.3672857 C25.4227261,43.0158571 24.485813,41.3844286 24.9679,39.8387143 C25.2347696,38.9787143 25.0697696,38.0415714 24.5245522,37.3258571 C23.5445957,36.0387143 23.8674217,34.1844286 25.2247261,33.3115714 C25.977987,32.8272857 26.4500304,32.003 26.4887696,31.103 C26.5590739,29.483 27.990987,28.2715714 29.5879,28.483 C30.4760304,28.6001429 31.3641609,28.2744286 31.9682043,27.6101429 C33.0557696,26.4158571 34.9281609,26.4158571 36.0171609,27.6101429 Z" id="Stroke-23" stroke="#002E67" stroke-width="2"></path>
        <path d="M38.3155391,36.7142857 C38.3155391,39.0814286 36.3886261,41 34.0111913,41 C31.6337565,41 29.7068435,39.0814286 29.7068435,36.7142857 C29.7068435,34.3471429 31.6337565,32.4285714 34.0111913,32.4285714 C36.3886261,32.4285714 38.3155391,34.3471429 38.3155391,36.7142857 Z" id="Stroke-25" stroke="#002E67" stroke-width="2"></path>
    </g>
</svg>