<?xml version="1.0" encoding="UTF-8"?>
<svg width="59px" height="61px" viewBox="0 0 59 61" version="1.1" xmlns="http://www.w3.org/2000/svg" xmlns:xlink="http://www.w3.org/1999/xlink">
    <!-- Generator: Sketch 50.2 (55047) - http://www.bohemiancoding.com/sketch -->
    <title>icon/benefits/convenience</title>
    <desc>Created with Sketch.</desc>
    <defs></defs>
    <g id="icon/benefits/convenience" stroke="none" stroke-width="1" fill="none" fill-rule="evenodd" stroke-linejoin="round">
        <path d="M37.2727273,41.4347826 C40.0722045,41.4347826 42.4545455,38.7543478 42.4545455,36.2173913 L42.4545455,24.4782609 C42.4545455,20.17 34.0004091,17.9565217 29.5,17.9565217 C24.9995909,17.9565217 16.5454545,20.17 16.5454545,24.4782609 L16.5454545,36.2173913 C16.5454545,38.7543478 18.9277955,41.4347826 21.7272727,41.4347826" id="Stroke-1" stroke="#002E67" stroke-width="2"></path>
        <path d="M52.8181818,44.0434783 C55.3378409,44.0434783 58,42.6673913 58,40.1304348 L58,28.3913043 C58,24.0830435 50.3905,21.8695652 46.3409091,21.8695652 C45.9406136,21.8695652 45.5040455,21.8917391 45.0454545,21.9347826" id="Stroke-3" stroke="#6C7C90" stroke-width="2"></path>
        <path d="M29.5,14.0434783 C32.5197045,14.0434783 34.6818182,11.9134783 34.6818182,8.82608696 L34.6818182,6.2173913 C34.6818182,3.13 32.5197045,1 29.5,1 C26.4802955,1 24.3181818,3.13 24.3181818,6.2173913 L24.3181818,8.82608696 C24.3181818,11.9134783 26.4802955,14.0434783 29.5,14.0434783 Z" id="Stroke-5" stroke="#002E67" stroke-width="2"></path>
        <path d="M52.8181818,61 L52.8181818,31" id="Stroke-7" stroke="#6C7C90" stroke-width="2"></path>
        <path d="M37.2727273,61 L37.2727273,27.0869565" id="Stroke-9" stroke="#002E67" stroke-width="2"></path>
        <path d="M21.7272727,27.0869565 L21.7272727,61" id="Stroke-11" stroke="#002E67" stroke-width="2"></path>
        <path d="M29.5,40.1304348 L29.5,61" id="Stroke-13" stroke="#002E67" stroke-width="2"></path>
        <path d="M46.3409091,17.9565217 C49.3606136,17.9565217 51.5227273,15.8265217 51.5227273,12.7391304 L51.5227273,10.1304348 C51.5227273,7.04304348 49.3606136,4.91304348 46.3409091,4.91304348 C43.3212045,4.91304348 41.1590909,7.04304348 41.1590909,10.1304348 L41.1590909,12.7391304 C41.1590909,15.8265217 43.3212045,17.9565217 46.3409091,17.9565217 Z" id="Stroke-15" stroke="#6C7C90" stroke-width="2"></path>
        <path d="M6.18181818,44.0434783 C3.66215909,44.0434783 1,42.6673913 1,40.1304348 L1,28.3913043 C1,24.0830435 8.6095,21.8695652 12.6590909,21.8695652 C13.0593864,21.8695652 13.4959545,21.8917391 13.9545455,21.9347826" id="Stroke-17" stroke="#6C7C90" stroke-width="2"></path>
        <path d="M6.18181818,61 L6.18181818,31" id="Stroke-19" stroke="#6C7C90" stroke-width="2"></path>
        <path d="M12.6590909,17.9565217 C9.63938636,17.9565217 7.47727273,15.8265217 7.47727273,12.7391304 L7.47727273,10.1304348 C7.47727273,7.04304348 9.63938636,4.91304348 12.6590909,4.91304348 C15.6787955,4.91304348 17.8409091,7.04304348 17.8409091,10.1304348 L17.8409091,12.7391304 C17.8409091,15.8265217 15.6787955,17.9565217 12.6590909,17.9565217 Z" id="Stroke-21" stroke="#6C7C90" stroke-width="2"></path>
    </g>
</svg>