<?xml version="1.0" encoding="UTF-8"?>
<svg width="58px" height="61px" viewBox="0 0 58 61" version="1.1" xmlns="http://www.w3.org/2000/svg" xmlns:xlink="http://www.w3.org/1999/xlink">
    <!-- Generator: Sketch 50.2 (55047) - http://www.bohemiancoding.com/sketch -->
    <title>icon/benefits/innovation</title>
    <desc>Created with Sketch.</desc>
    <defs></defs>
    <g id="icon/benefits/innovation" stroke="none" stroke-width="1" fill="none" fill-rule="evenodd">
        <polyline id="Stroke-1" stroke="#6C7C90" stroke-width="2" stroke-linejoin="round" points="19.0274159 50.307087 15.5154386 48.244913 10.5616205 51.0088261 7.05352955 47.4753478 9.80118864 42.4888261 7.77250682 38.9527391 2.10877955 38.854913 0.999870455 34.0288261 5.87596136 31.0940435 5.87596136 27.0101304 0.999870455 24.0740435 2.24998409 19.2479565 7.83339318 19.1514348 9.84005227 15.6140435 7.07425682 10.6275217 10.5732795 7.09404348 15.5206205 9.86186957 19.0300068 7.81926087 19.1258705 2.11665217 23.9177568 1.00013043 26.8325295 5.90969565 30.8885977 5.90969565 33.8046659 1.00013043 38.5978477 2.25882609 38.6937114 7.88056522 42.2069841 9.901 47.1595068 7.11491304 50.6688932 10.6379565 47.9199386 15.6205652 49.9486205 19.1540435 55.6123477 19.2505652 57.0541886 24.0753478 52.512325 27.0101304 52.512325 31.0940435 57.0541886 34.0288261 55.6382568 38.854913 49.9706432 38.9527391 47.9225295 42.4888261 50.6688932 47.4766522 47.1582114 51.0088261 42.2056886 48.2423043 38.6937114 50.2836087"></polyline>
        <path d="M18.8302477,28.083087 C18.8302477,30.2443913 17.0904523,31.9961304 14.9438841,31.9961304 C12.7973159,31.9961304 11.0575205,30.2443913 11.0575205,28.083087 C11.0575205,25.9217826 12.7973159,24.1700435 14.9438841,24.1700435 C17.0904523,24.1700435 18.8302477,25.9217826 18.8302477,28.083087 Z" id="Stroke-3" stroke="#002E67" stroke-width="2"></path>
        <path d="M44.7393386,21.5613478 C44.7393386,23.7226522 42.9995432,25.4743913 40.852975,25.4743913 C38.7064068,25.4743913 36.9666114,23.7226522 36.9666114,21.5613478 C36.9666114,19.4000435 38.7064068,17.6483043 40.852975,17.6483043 C42.9995432,17.6483043 44.7393386,19.4000435 44.7393386,21.5613478 Z" id="Stroke-5" stroke="#002E67" stroke-width="2"></path>
        <path d="M31.7847932,15.0396087 C31.7847932,17.200913 30.0449977,18.9526522 27.8984295,18.9526522 C25.7518614,18.9526522 24.0120659,17.200913 24.0120659,15.0396087 C24.0120659,12.8783043 25.7518614,11.1265652 27.8984295,11.1265652 C30.0449977,11.1265652 31.7847932,12.8783043 31.7847932,15.0396087 Z" id="Stroke-7" stroke="#002E67" stroke-width="2"></path>
        <path d="M27.8984295,18.9526522 L27.8984295,60.6917826" id="Stroke-9" stroke="#002E67" stroke-width="2"></path>
        <polyline id="Stroke-11" stroke="#002E67" stroke-width="2" points="38.2620659 24.1700435 33.0802477 29.3874348 33.0802477 37.2135217"></polyline>
        <polyline id="Stroke-13" stroke="#002E67" stroke-width="2" points="17.5347932 30.6917826 22.7166114 35.9091739 22.7166114 60.6917826"></polyline>
        <path d="M46.0347932,34.6048261 C46.0347932,36.7661304 44.2949977,38.5178696 42.1484295,38.5178696 C40.0018614,38.5178696 38.2620659,36.7661304 38.2620659,34.6048261 C38.2620659,32.4435217 40.0018614,30.6917826 42.1484295,30.6917826 C44.2949977,30.6917826 46.0347932,32.4435217 46.0347932,34.6048261 Z" id="Stroke-15" stroke="#002E67" stroke-width="2"></path>
        <polyline id="Stroke-17" stroke="#002E67" stroke-width="2" points="39.5575205 37.2135217 33.0802477 43.7352609 33.0802477 60.6917826"></polyline>
    </g>
</svg>