<?xml version="1.0" encoding="UTF-8"?>
<svg width="68px" height="61px" viewBox="0 0 68 61" version="1.1" xmlns="http://www.w3.org/2000/svg" xmlns:xlink="http://www.w3.org/1999/xlink">
    <!-- Generator: Sketch 50.2 (55047) - http://www.bohemiancoding.com/sketch -->
    <title>icon/benefits/availability</title>
    <desc>Created with Sketch.</desc>
    <defs></defs>
    <g id="icon/benefits/availability" stroke="none" stroke-width="1" fill="none" fill-rule="evenodd">
        <path d="M12.5240328,7.07528571 C13.2273115,6.17207143 13.9923934,5.30314286 14.8192787,4.47171429" id="Stroke-1" stroke="#6C7C90" stroke-width="2"></path>
        <path d="M9.65646721,11.5684286 C10.1285164,10.6480714 10.6538443,9.74807143 11.2324508,8.87271429" id="Stroke-3" stroke="#6C7C90" stroke-width="2"></path>
        <path d="M7.81845902,16.0603929 C8.10296721,15.1486071 8.43542623,14.2496786 8.81263934,13.3646786" id="Stroke-5" stroke="#6C7C90" stroke-width="2"></path>
        <path d="M10.4442459,39.1434643 C6.63268852,32.6613214 5.59162295,24.9888214 7.31998361,17.8573929" id="Stroke-7" stroke="#6C7C90" stroke-width="2"></path>
        <path d="M11.7058852,18.7551429 C11.9541639,17.8444286 12.258918,16.9455 12.6201475,16.0605" id="Stroke-9" stroke="#6C7C90" stroke-width="2"></path>
        <path d="M13.0086557,34.9261071 C10.968082,30.4421786 10.3617705,25.4021786 11.2888197,20.5518214" id="Stroke-11" stroke="#6C7C90" stroke-width="2"></path>
        <path d="M61.5413852,31.1693571 C61.2483525,32.2772143 60.8849918,33.3797143 60.4502377,34.4715" id="Stroke-13" stroke="#6C7C90" stroke-width="2"></path>
        <path d="M62.4197377,25.90425 C62.3462131,26.9371071 62.2151475,27.9721071 62.0254754,29.0060357" id="Stroke-15" stroke="#6C7C90" stroke-width="2"></path>
        <path d="M62.3521803,21.0474643 C62.4470164,21.9978214 62.4939016,22.95675 62.4928361,23.9188929" id="Stroke-17" stroke="#6C7C90" stroke-width="2"></path>
        <path d="M50.9071721,0.864214286 C56.9479098,5.316 60.9065164,11.9577857 62.107418,19.1985" id="Stroke-19" stroke="#6C7C90" stroke-width="2"></path>
        <path d="M57.7239672,20.1076071 C57.8507705,21.0429643 57.9232295,21.9901071 57.9381475,22.9468929" id="Stroke-21" stroke="#6C7C90" stroke-width="2"></path>
        <path d="M50.1995246,5.54271429 C53.831,8.85771429 56.3596066,13.2527143 57.4038689,18.0773571" id="Stroke-23" stroke="#6C7C90" stroke-width="2"></path>
        <polygon id="Stroke-31" stroke="#6C7C90" stroke-width="2" points="57.3155328 39.8094643 42.1811885 38.1776786 32.4365164 32.5398214 2.24881148 45.5426786 12.1479918 51.2683929 27.3238934 52.9248214 35.7856148 59.1144643 65.9733197 46.1126786"></polygon>
        <path d="M34.6860492,45.9021429 C35.036623,35.8157143 44.6427705,33.3171429 44.6427705,25.0735714 C44.6427705,18.7735714 39.1721148,13.7592857 32.7477705,14.5703571 C27.2558033,15.2635714 23.1980984,20.2789286 23.6062131,25.8278571 C24.1688361,33.4810714 33.196377,36.1307143 33.5362951,45.9021429" id="Fill-33" fill="#FFFFFF"></path>
        <path d="M34.6860492,45.9021429 C35.036623,35.8157143 44.6427705,33.3171429 44.6427705,25.0735714 C44.6427705,18.7735714 39.1721148,13.7592857 32.7477705,14.5703571 C27.2558033,15.2635714 23.1980984,20.2789286 23.6062131,25.8278571 C24.1688361,33.4810714 33.196377,36.1307143 33.5362951,45.9021429" id="Stroke-35" stroke="#002E67" stroke-width="2"></path>
        <path d="M37.3067213,25.20225 C37.3067213,26.9765357 35.8756557,28.4154643 34.1110656,28.4154643 C32.3454098,28.4154643 30.9154098,26.9765357 30.9154098,25.20225 C30.9154098,23.4268929 32.3454098,21.9890357 34.1110656,21.9890357 C35.8756557,21.9890357 37.3067213,23.4268929 37.3067213,25.20225" id="Fill-37" fill="#FFFFFF"></path>
        <path d="M37.3067213,25.20225 C37.3067213,26.9765357 35.8756557,28.4154643 34.1110656,28.4154643 C32.3454098,28.4154643 30.9154098,26.9765357 30.9154098,25.20225 C30.9154098,23.4268929 32.3454098,21.9890357 34.1110656,21.9890357 C35.8756557,21.9890357 37.3067213,23.4268929 37.3067213,25.20225 Z" id="Stroke-39" stroke="#002E67" stroke-width="2"></path>
        <path d="M12.1478852,51.2683929 L30.0612459,43.3473214" id="Stroke-41" stroke="#6C7C90" stroke-width="2"></path>
        <path d="M57.0515902,39.6604286 L36.8035574,48.8704286" id="Stroke-43" stroke="#6C7C90" stroke-width="2"></path>
    </g>
</svg>