<svg width="47" height="38" viewBox="0 0 47 38" version="1.1" xmlns="http://www.w3.org/2000/svg" xmlns:xlink="http://www.w3.org/1999/xlink">
<title>013-coins-1</title>
<desc>Created using Figma</desc>
<g id="Canvas" transform="translate(6962 1602)">
<g id="013-coins-1">
<g id="Group">
<g id="Group">
<g id="Vector">
<use xlink:href="#path0_fill" transform="translate(-6943.75 -1593.15)" fill="#3378FF"/>
<use xlink:href="#path0_fill" transform="translate(-6943.75 -1593.15)" fill="url(#paint1_linear)"/>
</g>
</g>
</g>
<g id="Group">
<g id="Group">
<g id="Vector">
<use xlink:href="#path1_fill" transform="translate(-6935.91 -1602)" fill="#3378FF"/>
<use xlink:href="#path1_fill" transform="translate(-6935.91 -1602)" fill="url(#paint3_linear)"/>
</g>
</g>
</g>
<g id="Group">
<g id="Group">
<g id="Vector">
<use xlink:href="#path2_fill" transform="translate(-6962 -1584.3)"/>
</g>
</g>
</g>
</g>
</g>
<defs>
<linearGradient id="paint1_linear" x1="0" y1="0" x2="1" y2="0" gradientUnits="userSpaceOnUse" gradientTransform="matrix(6.43155e-16 10.4111 -10.5035 6.37496e-16 10.5035 -6.37496e-16)">
<stop offset="0" stop-color="#E1B25C"/>
<stop offset="1" stop-color="#B68045"/>
</linearGradient>
<linearGradient id="paint3_linear" x1="0" y1="0" x2="1" y2="0" gradientUnits="userSpaceOnUse" gradientTransform="matrix(5.14514e-16 8.32867 -8.40264 5.09984e-16 8.40264 -5.09984e-16)">
<stop offset="0" stop-color="#E1B25C"/>
<stop offset="1" stop-color="#B68045"/>
</linearGradient>
<path id="path0_fill" d="M 5.25198 2.23395e-07C 2.35 2.23395e-07 3.80994e-07 2.33003 3.80994e-07 5.20504C 3.80994e-07 8.0796 2.34991 10.4111 5.25198 10.4111C 8.1524 10.4111 10.5035 8.07951 10.5035 5.20504C 10.5035 2.32994 8.1524 2.23395e-07 5.25198 2.23395e-07ZM 5.25198 8.84941C 3.2252 8.84941 1.57606 7.21444 1.57606 5.20504C 1.57606 3.19619 3.22529 1.56168 5.25198 1.56168C 7.27877 1.56168 8.92736 3.19619 8.92736 5.20504C 8.92745 7.21444 7.27877 8.84941 5.25198 8.84941Z"/>
<path id="path1_fill" d="M 4.20183 -9.21506e-08C 1.88 -9.21506e-08 1.09816e-06 1.86409 1.09816e-06 4.16383C 1.09816e-06 6.46403 1.87945 8.32867 4.20183 8.32867C 6.52154 8.32867 8.40264 6.46403 8.40264 4.16383C 8.40264 1.86409 6.52163 -9.21506e-08 4.20183 -9.21506e-08ZM 4.20183 6.76709C 2.75373 6.76709 1.57561 5.59896 1.57561 4.16383C 1.57506 2.72916 2.75318 1.56159 4.20183 1.56159C 5.64947 1.56159 6.82658 2.72916 6.82658 4.16383C 6.82658 5.59896 5.64947 6.76709 4.20183 6.76709Z"/>
<path id="path2_fill" d="M 43.4693 2.21967C 42.9502 2.21967 42.4714 2.34512 42.0457 2.53408C 41.4007 1.71467 40.3986 1.18478 39.2685 1.18377C 38.6841 1.18322 38.1473 1.33731 37.6856 1.56744L 36.1947 2.44248C 35.5477 1.67569 34.5788 1.18432 33.4916 1.18377C 32.9073 1.18322 32.3709 1.33731 31.9092 1.56744L 26.5428 4.82238C 25.2404 4.44026 19.5842 2.84995 18.4965 2.57782C 17.9507 2.44148 17.4745 2.32948 17.0844 2.24987C 16.8892 2.21034 16.7158 2.17804 16.5617 2.15462C 16.4055 2.13174 16.2754 2.11564 16.1282 2.11509C 16.0148 2.11564 15.9172 2.12607 15.8049 2.13906C 15.3981 2.19268 14.8194 2.31557 14.1369 2.47369C 12.7421 2.79898 10.9613 3.27113 9.97797 3.53667L 9.97797 2.08224C 9.97797 0.937079 9.03329 -6.59017e-07 7.87812 -6.59017e-07L 2.10032 -6.59017e-07C 0.945785 -6.59017e-07 0 0.936987 0 2.08224L 0 18.2193C 0 19.3645 0.945785 20.3015 2.10032 20.3015L 7.87711 20.3015C 9.03283 20.3015 9.97696 19.3645 9.97696 18.2193L 9.97696 16.9664C 11.2235 17.2355 13.9908 17.8278 16.9079 18.4218C 18.8808 18.8231 20.9202 19.225 22.6038 19.528C 23.4462 19.679 24.2003 19.8054 24.8165 19.8949C 25.4384 19.9844 25.9027 20.0396 26.2563 20.0412C 26.5315 20.0402 26.7915 19.988 27.073 19.9121C 27.5968 19.7658 28.1926 19.5175 28.8747 19.189C 31.2486 18.0417 34.6583 15.8919 37.8746 13.7649C 41.0852 11.641 44.088 9.54273 45.5597 8.53849C 46.4819 7.90858 47 6.84569 47 5.72029C 46.999 3.78748 45.4204 2.22013 43.4693 2.21967ZM 8.40255 18.2192C 8.40255 18.5013 8.16177 18.7398 7.8772 18.7398L 2.10032 18.7398C 1.81575 18.7398 1.57496 18.5013 1.57496 18.2192L 1.57496 2.08224C 1.57496 1.80013 1.81575 1.56168 2.10032 1.56168L 7.87711 1.56168C 8.16168 1.56168 8.40246 1.80013 8.40246 2.08224L 8.40246 18.2192L 8.40255 18.2192ZM 44.6684 7.25223C 42.8583 8.48807 38.8089 11.3224 34.8892 13.8455C 32.9314 15.1063 31.0049 16.2884 29.4257 17.1458C 28.6372 17.5742 27.9338 17.9209 27.3708 18.152C 27.0899 18.2682 26.8438 18.3545 26.6491 18.4082C 26.4553 18.4628 26.3097 18.481 26.2563 18.48C 26.0845 18.4815 25.6297 18.4363 25.0458 18.3503C 22.9763 18.05 19.1034 17.2831 15.769 16.594C 14.1005 16.2489 12.5626 15.9236 11.4423 15.6836C 10.7917 15.5446 10.2887 15.4358 9.97641 15.3686L 9.97641 5.156C 10.1299 5.11436 10.332 5.05964 10.5744 4.99413C 11.4048 4.77086 12.6721 4.43606 13.8085 4.15871C 14.3756 4.01972 14.9119 3.89591 15.3381 3.80789C 15.5506 3.76424 15.7355 3.72974 15.878 3.70742C 16.0179 3.68399 16.1261 3.67621 16.1272 3.67722C 16.1303 3.67667 16.2128 3.68189 16.3251 3.69909C 16.7596 3.7636 17.651 3.97021 18.7362 4.25241C 22.0075 5.09881 27.1654 6.62974 29.2491 7.25754C 29.9698 7.47303 30.623 7.79786 31.0508 8.19197C 31.2664 8.38879 31.4278 8.59906 31.5365 8.82654C 31.6457 9.05502 31.7067 9.30281 31.7078 9.60477C 31.7073 10.2174 31.4598 10.7651 31.0545 11.1675C 30.6524 11.5646 30.1061 11.8083 29.4957 11.8134L 27.4638 11.6161L 20.5266 10.7337C 20.0947 10.6791 19.6994 10.981 19.6445 11.4084C 19.5897 11.8363 19.8946 12.2278 20.326 12.2824L 27.2857 13.1678L 29.4399 13.3771L 29.4785 13.3771C 31.5795 13.3761 33.283 11.6884 33.284 9.60513C 33.285 9.08037 33.1675 8.58854 32.9602 8.15646C 32.6479 7.50634 32.145 7.00289 31.5774 6.61977C 31.0071 6.23564 30.3637 5.96186 29.7078 5.76403C 29.3935 5.66924 29.007 5.55321 28.571 5.42355L 32.6297 2.95874C 32.907 2.82286 33.1912 2.74636 33.4914 2.74582C 34.0006 2.74527 34.4601 2.94099 34.808 3.25759L 32.6956 4.4991C 32.3217 4.7188 32.1985 5.19818 32.4204 5.56932C 32.6429 5.9399 33.126 6.06224 33.4999 5.84208L 38.402 2.9603C 38.6809 2.82286 38.9666 2.74636 39.2684 2.74582C 39.812 2.74527 40.3007 2.96963 40.6543 3.32576L 34.9459 6.68181C 34.5715 6.9015 34.4482 7.38089 34.6707 7.75202C 34.8927 8.12261 35.3757 8.24495 35.7496 8.02479L 42.6037 3.99529C 42.8821 3.8594 43.1672 3.78236 43.4686 3.78181C 44.0101 3.78236 44.4948 3.9973 44.8504 4.35022C 45.2055 4.7037 45.4233 5.18363 45.4238 5.72139C 45.4245 6.37463 45.1216 6.94616 44.6684 7.25223Z"/>
</defs>
</svg>
